# Blender v2.91.2 OBJ File: ''
# www.blender.org
mtllib face.mtl
o Cube.001
v -1.000000 -0.515836 0.000000
v -0.656969 -0.548245 0.124956
v 1.000000 -0.544965 0.000000
v 1.000000 -0.270992 0.000000
v 0.281523 -1.000000 0.000000
v 0.174466 -0.862364 0.124956
v -0.421309 -1.000000 0.000000
v -1.000000 -0.316881 0.000000
v 0.640604 -0.389393 0.124956
v 0.640604 -0.567143 0.124956
v -0.656969 -0.419165 0.124956
v -0.281522 -0.862364 0.124956
v -0.091541 0.051095 0.000000
v 0.106606 0.052107 0.000000
v -0.924621 0.046837 0.000000
v -0.222151 0.884510 0.000000
v 0.226410 0.791321 0.000000
v 0.922922 0.056279 0.000000
v -0.723559 0.157078 0.172853
v -0.217725 0.159663 0.172853
v -0.297029 0.665701 0.172853
v 0.232625 0.152180 0.159570
v 0.304045 0.592861 0.159570
v 0.719268 0.154667 0.159570
vt 0.125000 0.689479
vt 0.125000 0.664610
vt 0.125000 0.664610
vt 0.125000 0.689479
vt 0.375000 0.658874
vt 0.197336 0.750000
vt 0.285190 0.750000
vt 0.375000 0.693121
vt 0.197336 0.750000
vt 0.285190 0.750000
vt 0.134422 0.619145
vt 0.238557 0.618613
vt 0.222231 0.514436
vt 0.263326 0.618487
vt 0.365365 0.617965
vt 0.278301 0.526085
vt 0.375000 0.658874
vt 0.375000 0.693121
vt 0.134422 0.619145
vt 0.222231 0.514436
vt 0.238557 0.618613
vt 0.263326 0.618487
vt 0.278301 0.526085
vt 0.365365 0.617965
vn 0.9323 0.3280 0.1524
vn 0.7915 -0.5974 0.1292
vn 0.1225 -0.3645 -0.9231
vn 0.2271 0.1700 -0.9589
vn -0.7788 -0.6153 0.1218
vn 0.3883 0.8870 0.2498
vn -0.3089 0.9098 0.2771
vn -0.9164 0.3736 0.1439
vn 0.0894 0.3653 -0.9266
vn -0.0808 0.3714 -0.9249
vn 0.8753 0.4297 0.2219
vn -0.7283 0.6214 0.2889
vn -0.2766 -0.9354 0.2203
vn 0.7347 0.6178 0.2802
vn -0.8939 0.3957 0.2104
vn 0.3061 -0.9259 0.2216
vn -0.1028 -0.3678 -0.9242
vn -0.2187 0.2126 -0.9524
vn 0.4565 0.1631 -0.8746
vn -0.0861 -0.4749 -0.8758
vn -0.4107 0.3470 -0.8432
vn 0.3916 0.3531 -0.8497
vn 0.0907 -0.4733 -0.8762
vn -0.4431 0.1481 -0.8842
usemtl Material.001
s 1
f 1/1/1 8/2/2 11/3/3
f 1/1/1 11/3/3 2/4/4
f 4/5/5 8/2/2 1/1/1
f 1/1/1 7/6/6 5/7/7
f 5/7/7 3/8/8 4/5/5
f 1/1/1 5/7/7 4/5/5
f 5/7/7 7/6/6 12/9/9
f 5/7/7 12/9/9 6/10/10
f 15/11/11 13/12/12 16/13/13
f 14/14/14 18/15/15 17/16/16
f 2/4/4 11/3/3 9/17/17
f 9/17/17 10/18/18 6/10/10
f 6/10/10 12/9/9 2/4/4
f 9/17/17 6/10/10 2/4/4
f 7/6/6 1/1/1 2/4/4
f 7/6/6 2/4/4 12/9/9
f 3/8/8 5/7/7 6/10/10
f 3/8/8 6/10/10 10/18/18
f 4/5/5 3/8/8 10/18/18
f 4/5/5 10/18/18 9/17/17
f 8/2/2 4/5/5 9/17/17
f 8/2/2 9/17/17 11/3/3
f 19/19/19 21/20/20 20/21/21
f 15/11/11 16/13/13 21/20/20
f 15/11/11 21/20/20 19/19/19
f 16/13/13 13/12/12 20/21/21
f 16/13/13 20/21/21 21/20/20
f 13/12/12 15/11/11 19/19/19
f 13/12/12 19/19/19 20/21/21
f 22/22/22 23/23/23 24/24/24
f 17/16/16 18/15/15 24/24/24
f 17/16/16 24/24/24 23/23/23
f 18/15/15 14/14/14 22/22/22
f 18/15/15 22/22/22 24/24/24
f 14/14/14 17/16/16 23/23/23
f 14/14/14 23/23/23 22/22/22
